<svg width="24" height="25" viewBox="0 0 24 25" fill="none" xmlns="http://www.w3.org/2000/svg">
<path d="M12 24.7366C18.6274 24.7366 24 19.3648 24 12.7384C24 6.112 18.6274 0.740234 12 0.740234C5.37258 0.740234 0 6.112 0 12.7384C0 19.3648 5.37258 24.7366 12 24.7366Z" fill="#FEA431"/>
<path d="M17.1533 7.93458L10.5418 14.5453L6.84635 10.8503C6.54865 10.5526 6.14487 10.3854 5.72386 10.3854C5.30284 10.3854 4.89907 10.5526 4.60137 10.8503C4.30366 11.1479 4.13641 11.5516 4.13641 11.9726C4.13641 12.3935 4.30366 12.7972 4.60137 13.0949L9.41939 17.9122C9.5668 18.0596 9.7418 18.1765 9.93439 18.2563C10.127 18.336 10.3334 18.3771 10.5419 18.3771C10.7504 18.3771 10.9568 18.336 11.1494 18.2563C11.342 18.1765 11.517 18.0596 11.6644 17.9122L19.3983 10.1794C19.6961 9.88177 19.8633 9.47805 19.8634 9.05707C19.8634 8.6361 19.6961 8.23237 19.3984 7.93468C19.1007 7.637 18.6969 7.46975 18.2759 7.46973C17.8549 7.46971 17.4511 7.63692 17.1533 7.93458Z" fill="#F5F3F8"/>
</svg>
