<svg width="14" height="15" viewBox="0 0 14 15" fill="none" xmlns="http://www.w3.org/2000/svg">
<path fill-rule="evenodd" clip-rule="evenodd" d="M6.9987 14.0735C3.3167 14.0735 0.332031 11.0893 0.332031 7.40784C0.332031 3.7264 3.3167 0.742188 6.9987 0.742188C10.6807 0.742188 13.6654 3.7264 13.6654 7.40784C13.6654 11.0893 10.6807 14.0735 6.9987 14.0735ZM6.9974 12.7405C9.94292 12.7405 12.3307 10.3531 12.3307 7.40808C12.3307 4.46308 9.94292 2.07568 6.9974 2.07568C4.05188 2.07568 1.66406 4.46308 1.66406 7.40808C1.66406 10.3531 4.05188 12.7405 6.9974 12.7405ZM10.332 7.40881H7.66532V4.07548H6.33199V8.74215H10.332V7.40881Z" fill="black"/>
</svg>
