<svg width="21" height="13" viewBox="0 0 21 13" fill="none" xmlns="http://www.w3.org/2000/svg">
<rect y="0.0625" width="20.884" height="12.8571" rx="3.03797" fill="white"/>
<mask id="mask0_1_410" style="mask-type:alpha" maskUnits="userSpaceOnUse" x="0" y="0" width="21" height="13">
<rect y="0.0625" width="20.884" height="12.8571" rx="3.03797" fill="white"/>
</mask>
<g mask="url(#mask0_1_410)">
<path fill-rule="evenodd" clip-rule="evenodd" d="M20.884 0.0625H0V0.919643H20.884V0.0625ZM20.884 1.77685H0V2.63399H20.884V1.77685ZM0 3.49099H20.884V4.34813H0V3.49099ZM20.884 5.20534H0V6.06248H20.884V5.20534ZM0 6.91969H20.884V7.77683H0V6.91969ZM20.884 8.63383H0V9.49097H20.884V8.63383ZM0 10.3482H20.884V11.2053H0V10.3482ZM20.884 12.0625H0V12.9197H20.884V12.0625Z" fill="#D02F44"/>
<rect y="0.0625" width="8.95028" height="6" fill="#46467F"/>
<g filter="url(#filter0_d_1_410)">
<path fill-rule="evenodd" clip-rule="evenodd" d="M1.49333 1.77706C1.76795 1.77706 1.99057 1.58519 1.99057 1.34849C1.99057 1.1118 1.76795 0.919922 1.49333 0.919922C1.21871 0.919922 0.996094 1.1118 0.996094 1.34849C0.996094 1.58519 1.21871 1.77706 1.49333 1.77706ZM3.48222 1.77731C3.75684 1.77731 3.97946 1.58543 3.97946 1.34874C3.97946 1.11204 3.75684 0.920166 3.48222 0.920166C3.20761 0.920166 2.98499 1.11204 2.98499 1.34874C2.98499 1.58543 3.20761 1.77731 3.48222 1.77731ZM5.96713 1.34849C5.96713 1.58519 5.74451 1.77706 5.46989 1.77706C5.19528 1.77706 4.97266 1.58519 4.97266 1.34849C4.97266 1.1118 5.19528 0.919922 5.46989 0.919922C5.74451 0.919922 5.96713 1.1118 5.96713 1.34849ZM7.45818 1.77706C7.73279 1.77706 7.95541 1.58519 7.95541 1.34849C7.95541 1.1118 7.73279 0.919922 7.45818 0.919922C7.18356 0.919922 6.96094 1.1118 6.96094 1.34849C6.96094 1.58519 7.18356 1.77706 7.45818 1.77706ZM2.98666 2.20592C2.98666 2.44261 2.76404 2.63449 2.48943 2.63449C2.21481 2.63449 1.99219 2.44261 1.99219 2.20592C1.99219 1.96922 2.21481 1.77734 2.48943 1.77734C2.76404 1.77734 2.98666 1.96922 2.98666 2.20592ZM4.47673 2.63449C4.75135 2.63449 4.97397 2.44261 4.97397 2.20592C4.97397 1.96922 4.75135 1.77734 4.47673 1.77734C4.20211 1.77734 3.97949 1.96922 3.97949 2.20592C3.97949 2.44261 4.20211 2.63449 4.47673 2.63449ZM6.96286 2.20592C6.96286 2.44261 6.74024 2.63449 6.46562 2.63449C6.191 2.63449 5.96838 2.44261 5.96838 2.20592C5.96838 1.96922 6.191 1.77734 6.46562 1.77734C6.74024 1.77734 6.96286 1.96922 6.96286 2.20592ZM7.45818 3.49191C7.73279 3.49191 7.95541 3.30003 7.95541 3.06334C7.95541 2.82664 7.73279 2.63477 7.45818 2.63477C7.18356 2.63477 6.96094 2.82664 6.96094 3.06334C6.96094 3.30003 7.18356 3.49191 7.45818 3.49191ZM5.96713 3.06334C5.96713 3.30003 5.74451 3.49191 5.46989 3.49191C5.19528 3.49191 4.97266 3.30003 4.97266 3.06334C4.97266 2.82664 5.19528 2.63477 5.46989 2.63477C5.74451 2.63477 5.96713 2.82664 5.96713 3.06334ZM3.48222 3.49166C3.75684 3.49166 3.97946 3.29979 3.97946 3.06309C3.97946 2.8264 3.75684 2.63452 3.48222 2.63452C3.20761 2.63452 2.98499 2.8264 2.98499 3.06309C2.98499 3.29979 3.20761 3.49166 3.48222 3.49166ZM1.99054 3.06308C1.99054 3.29978 1.76792 3.49165 1.4933 3.49165C1.21869 3.49165 0.996064 3.29978 0.996064 3.06308C0.996064 2.82639 1.21869 2.63451 1.4933 2.63451C1.76792 2.63451 1.99054 2.82639 1.99054 3.06308ZM2.48943 4.34884C2.76404 4.34884 2.98666 4.15696 2.98666 3.92027C2.98666 3.68358 2.76404 3.4917 2.48943 3.4917C2.21481 3.4917 1.99219 3.68358 1.99219 3.92027C1.99219 4.15696 2.21481 4.34884 2.48943 4.34884ZM4.97397 3.92027C4.97397 4.15696 4.75135 4.34884 4.47673 4.34884C4.20211 4.34884 3.97949 4.15696 3.97949 3.92027C3.97949 3.68358 4.20211 3.4917 4.47673 3.4917C4.75135 3.4917 4.97397 3.68358 4.97397 3.92027ZM6.46562 4.34884C6.74024 4.34884 6.96286 4.15696 6.96286 3.92027C6.96286 3.68358 6.74024 3.4917 6.46562 3.4917C6.191 3.4917 5.96838 3.68358 5.96838 3.92027C5.96838 4.15696 6.191 4.34884 6.46562 4.34884ZM7.95541 4.7772C7.95541 5.0139 7.73279 5.20578 7.45818 5.20578C7.18356 5.20578 6.96094 5.0139 6.96094 4.7772C6.96094 4.54051 7.18356 4.34863 7.45818 4.34863C7.73279 4.34863 7.95541 4.54051 7.95541 4.7772ZM5.46989 5.20578C5.74451 5.20578 5.96713 5.0139 5.96713 4.7772C5.96713 4.54051 5.74451 4.34863 5.46989 4.34863C5.19528 4.34863 4.97266 4.54051 4.97266 4.7772C4.97266 5.0139 5.19528 5.20578 5.46989 5.20578ZM3.97946 4.77723C3.97946 5.01393 3.75684 5.20581 3.48222 5.20581C3.20761 5.20581 2.98499 5.01393 2.98499 4.77723C2.98499 4.54054 3.20761 4.34866 3.48222 4.34866C3.75684 4.34866 3.97946 4.54054 3.97946 4.77723ZM1.4933 5.2058C1.76792 5.2058 1.99054 5.01392 1.99054 4.77722C1.99054 4.54053 1.76792 4.34865 1.4933 4.34865C1.21869 4.34865 0.996064 4.54053 0.996064 4.77722C0.996064 5.01392 1.21869 5.2058 1.4933 5.2058Z" fill="url(#paint0_linear_1_410)"/>
</g>
</g>
<defs>
<filter id="filter0_d_1_410" x="0.996094" y="0.919922" width="6.95935" height="6.28589" filterUnits="userSpaceOnUse" color-interpolation-filters="sRGB">
<feFlood flood-opacity="0" result="BackgroundImageFix"/>
<feColorMatrix in="SourceAlpha" type="matrix" values="0 0 0 0 0 0 0 0 0 0 0 0 0 0 0 0 0 0 127 0" result="hardAlpha"/>
<feOffset dy="2"/>
<feColorMatrix type="matrix" values="0 0 0 0 0 0 0 0 0 0 0 0 0 0 0 0 0 0 0.06 0"/>
<feBlend mode="normal" in2="BackgroundImageFix" result="effect1_dropShadow_1_410"/>
<feBlend mode="normal" in="SourceGraphic" in2="effect1_dropShadow_1_410" result="shape"/>
</filter>
<linearGradient id="paint0_linear_1_410" x1="0.996094" y1="0.919922" x2="0.996094" y2="5.20581" gradientUnits="userSpaceOnUse">
<stop stop-color="white"/>
<stop offset="1" stop-color="#F0F0F0"/>
</linearGradient>
</defs>
</svg>
