<svg width="24" height="20" viewBox="0 0 24 20" fill="none" xmlns="http://www.w3.org/2000/svg">
<path d="M23.643 2.93708C22.808 3.30708 21.911 3.55708 20.968 3.67008C21.941 3.08787 22.6689 2.17154 23.016 1.09208C22.1018 1.63507 21.1013 2.01727 20.058 2.22208C19.3564 1.47294 18.4271 0.976403 17.4143 0.809551C16.4016 0.642699 15.3621 0.814868 14.4572 1.29933C13.5524 1.78379 12.8328 2.55344 12.4102 3.48878C11.9875 4.42412 11.8855 5.47283 12.12 6.47208C10.2677 6.37907 8.45562 5.89763 6.80142 5.05898C5.14722 4.22034 3.68784 3.04324 2.518 1.60408C2.118 2.29408 1.888 3.09408 1.888 3.94608C1.88755 4.71307 2.07643 5.46832 2.43788 6.14481C2.79932 6.8213 3.32216 7.39812 3.96 7.82408C3.22027 7.80054 2.49687 7.60066 1.85 7.24108V7.30108C1.84992 8.37682 2.22203 9.41945 2.90318 10.2521C3.58433 11.0847 4.53257 11.656 5.587 11.8691C4.90078 12.0548 4.18133 12.0821 3.483 11.9491C3.78049 12.8747 4.35999 13.6841 5.14036 14.264C5.92074 14.8439 6.86291 15.1653 7.835 15.1831C6.18483 16.4785 4.14688 17.1812 2.049 17.1781C1.67738 17.1782 1.30607 17.1565 0.936996 17.1131C3.06647 18.4823 5.54534 19.2089 8.077 19.2061C16.647 19.2061 21.332 12.1081 21.332 5.95208C21.332 5.75208 21.327 5.55008 21.318 5.35008C22.2293 4.69105 23.0159 3.87497 23.641 2.94008L23.643 2.93708Z" fill="#9D9D9D"/>
</svg>
