<svg width="12" height="13" viewBox="0 0 12 13" fill="none" xmlns="http://www.w3.org/2000/svg">
<path d="M6 12.4897C9.31371 12.4897 12 9.80389 12 6.49072C12 3.17755 9.31371 0.491699 6 0.491699C2.68629 0.491699 0 3.17755 0 6.49072C0 9.80389 2.68629 12.4897 6 12.4897Z" fill="#FEA431"/>
<path d="M8.57488 4.08891L5.26909 7.3948L3.42138 5.54697C3.27252 5.39812 3.07064 5.3145 2.86013 5.3145C2.64962 5.3145 2.44773 5.39812 2.29888 5.54697C2.15003 5.69582 2.06641 5.89771 2.06641 6.10822C2.06641 6.31873 2.15003 6.52061 2.29888 6.66947L4.7079 9.07848C4.7816 9.15219 4.8691 9.21066 4.9654 9.25055C5.0617 9.29044 5.16491 9.31097 5.26915 9.31097C5.37338 9.31097 5.47659 9.29044 5.57289 9.25055C5.66919 9.21066 5.75669 9.15219 5.83039 9.07848L9.69737 5.21151C9.84624 5.06265 9.92987 4.86076 9.92988 4.65024C9.92989 4.43972 9.84627 4.23782 9.69742 4.08896C9.54857 3.94009 9.34668 3.85646 9.13616 3.85645C8.92564 3.85644 8.72374 3.94005 8.57488 4.08891Z" fill="#F5F3F8"/>
</svg>
